<?xml version="1.0" encoding="UTF-8"?>
<svg width="62px" height="62px" viewBox="0 0 62 62" version="1.1" xmlns="http://www.w3.org/2000/svg" xmlns:xlink="http://www.w3.org/1999/xlink">
    <!-- Generator: Sketch 47 (45396) - http://www.bohemiancoding.com/sketch -->
    <title>Group 4</title>
    <desc>Created with Sketch.</desc>
    <defs></defs>
    <g id="updated" stroke="none" stroke-width="1" fill="none" fill-rule="evenodd">
        <g id="Features-Page-Update-–-Logged-Out" transform="translate(-261.000000, -677.000000)">
            <g id="Group-9" transform="translate(231.000000, 678.000000)">
                <g id="Group-4" transform="translate(31.000000, 0.000000)">
                    <g id="Group-2">
                        <g id="Page-1">
                            <path d="M60.0002,30.0003 C60.0002,46.5683 46.5682,60.0003 30.0002,60.0003 C13.4322,60.0003 0.0002,46.5683 0.0002,30.0003 C0.0002,13.4313 13.4322,0.0003 30.0002,0.0003 C46.5682,0.0003 60.0002,13.4313 60.0002,30.0003 Z" id="Stroke-1" stroke="#D6D6D6" stroke-width="2" stroke-linecap="round" stroke-linejoin="round"></path>
                            <g id="Group-25" transform="translate(9.000000, 15.000000)">
                                <path d="M13.5627,12.9222 C12.4097,12.9222 11.4707,11.9852 11.4707,10.8312 L11.4707,3.2672 C11.4707,2.1132 12.4097,1.1752 13.5627,1.1752 L28.4377,1.1752 C29.5907,1.1752 30.5297,2.1132 30.5297,3.2672 L30.5297,10.8312 C30.5297,11.9852 29.5907,12.9222 28.4377,12.9222 L13.5627,12.9222 Z" id="Fill-3" fill="#FFFFFF"></path>
                                <path d="M28.4377,0.1751 L13.5627,0.1751 C11.8577,0.1751 10.4707,1.5621 10.4707,3.2671 L10.4707,10.8311 C10.4707,12.5351 11.8577,13.9221 13.5627,13.9221 L28.4377,13.9221 C30.1417,13.9221 31.5297,12.5351 31.5297,10.8311 L31.5297,3.2671 C31.5297,1.5621 30.1417,0.1751 28.4377,0.1751 M28.4377,2.1751 C29.0407,2.1751 29.5297,2.6631 29.5297,3.2671 L29.5297,10.8311 C29.5297,11.4341 29.0407,11.9221 28.4377,11.9221 L13.5627,11.9221 C12.9587,11.9221 12.4707,11.4341 12.4707,10.8311 L12.4707,3.2671 C12.4707,2.6631 12.9587,2.1751 13.5627,2.1751 L28.4377,2.1751" id="Fill-5" fill="#000000"></path>
                                <path d="M23.0392,7.1722 L20.5802,8.5922 C20.2252,8.7972 19.7812,8.5412 19.7812,8.1312 L19.7812,5.2912 C19.7812,4.8822 20.2252,4.6262 20.5802,4.8302 L23.0392,6.2502 C23.3932,6.4552 23.3932,6.9682 23.0392,7.1722" id="Fill-7" fill="#000000"></path>
                                <path d="M3.9562,24.8245 C2.8032,24.8245 1.8642,23.8875 1.8642,22.7335 L1.8642,15.1695 C1.8642,14.0155 2.8032,13.0775 3.9562,13.0775 L18.8312,13.0775 C19.9842,13.0775 20.9222,14.0155 20.9222,15.1695 L20.9222,22.7335 C20.9222,23.8875 19.9842,24.8245 18.8312,24.8245 L3.9562,24.8245 Z" id="Fill-9" fill="#FFFFFF"></path>
                                <path d="M18.8312,12.0775 L3.9562,12.0775 C2.2512,12.0775 0.8642,13.4645 0.8642,15.1695 L0.8642,22.7335 C0.8642,24.4375 2.2512,25.8255 3.9562,25.8255 L18.8312,25.8255 C20.5352,25.8255 21.9222,24.4375 21.9222,22.7335 L21.9222,15.1695 C21.9222,13.4645 20.5352,12.0775 18.8312,12.0775 M18.8312,14.0775 C19.4342,14.0775 19.9222,14.5655 19.9222,15.1695 L19.9222,22.7335 C19.9222,23.3365 19.4342,23.8255 18.8312,23.8255 L3.9562,23.8255 C3.3532,23.8255 2.8642,23.3365 2.8642,22.7335 L2.8642,15.1695 C2.8642,14.5655 3.3532,14.0775 3.9562,14.0775 L18.8312,14.0775" id="Fill-11" fill="#000000"></path>
                                <path d="M13.4328,19.4788 L10.9738,20.8988 C10.6188,21.1038 10.1748,20.8468 10.1748,20.4378 L10.1748,17.5978 C10.1748,17.1888 10.6188,16.9318 10.9738,17.1368 L13.4328,18.5568 C13.7868,18.7618 13.7868,19.2738 13.4328,19.4788" id="Fill-13" fill="#000000"></path>
                                <path d="M23.1691,24.8245 C22.0161,24.8245 21.0771,23.8875 21.0771,22.7335 L21.0771,15.1695 C21.0771,14.0155 22.0161,13.0775 23.1691,13.0775 L38.0441,13.0775 C39.1971,13.0775 40.1361,14.0155 40.1361,15.1695 L40.1361,22.7335 C40.1361,23.8875 39.1971,24.8245 38.0441,24.8245 L23.1691,24.8245 Z" id="Fill-15" fill="#FFFFFF"></path>
                                <path d="M38.0441,12.0775 L23.1691,12.0775 C21.4641,12.0775 20.0771,13.4645 20.0771,15.1695 L20.0771,22.7335 C20.0771,24.4375 21.4641,25.8255 23.1691,25.8255 L38.0441,25.8255 C39.7481,25.8255 41.1351,24.4375 41.1351,22.7335 L41.1351,15.1695 C41.1351,13.4645 39.7481,12.0775 38.0441,12.0775 M38.0441,14.0775 C38.6471,14.0775 39.1351,14.5655 39.1351,15.1695 L39.1351,22.7335 C39.1351,23.3365 38.6471,23.8255 38.0441,23.8255 L23.1691,23.8255 C22.5661,23.8255 22.0771,23.3365 22.0771,22.7335 L22.0771,15.1695 C22.0771,14.5655 22.5661,14.0775 23.1691,14.0775 L38.0441,14.0775" id="Fill-17" fill="#000000"></path>
                                <path d="M33.1896,17.6253 C32.6906,17.6253 32.2346,17.3323 32.0286,16.8773 L31.2646,15.1843 L30.7066,15.6083 C30.4806,15.7793 30.2146,15.8693 29.9356,15.8693 C29.2346,15.8693 28.6626,15.2993 28.6596,14.5993 L28.6186,6.5033 C28.6156,6.1643 28.7466,5.8423 28.9856,5.6003 C29.2246,5.3593 29.5546,5.2223 29.8936,5.2223 C30.2056,5.2223 30.5056,5.3373 30.7406,5.5453 L36.7796,10.9413 C37.1416,11.2653 37.2886,11.7573 37.1606,12.2283 C37.0326,12.6973 36.6556,13.0483 36.1766,13.1433 L35.4896,13.2793 L36.2526,14.9713 C36.3916,15.2783 36.4026,15.6253 36.2826,15.9443 C36.1626,16.2643 35.9236,16.5173 35.6136,16.6573 L33.7126,17.5143 C33.5436,17.5893 33.3696,17.6253 33.1896,17.6253" id="Fill-19" fill="#00ADEF"></path>
                                <path d="M29.8937,4.222 C29.2917,4.222 28.7037,4.466 28.2787,4.894 C27.8497,5.325 27.6157,5.898 27.6187,6.508 L27.6597,14.606 C27.6657,15.854 28.6867,16.869 29.9357,16.869 C30.2467,16.869 30.5567,16.804 30.8417,16.679 L31.1157,17.285 C31.4827,18.1 32.2957,18.626 33.1897,18.626 C33.5137,18.626 33.8297,18.558 34.1257,18.423 L36.0237,17.569 C37.1667,17.052 37.6777,15.704 37.1647,14.562 L36.8907,13.955 C37.4917,13.678 37.9457,13.151 38.1247,12.492 C38.3537,11.654 38.0927,10.775 37.4457,10.196 L31.4077,4.8 C30.9907,4.427 30.4527,4.222 29.8937,4.222 M29.8937,6.222 C29.9567,6.222 30.0207,6.243 30.0757,6.292 L36.1137,11.688 C36.2827,11.838 36.2057,12.118 35.9837,12.161 L34.0617,12.544 L35.3397,15.382 C35.4027,15.52 35.3407,15.683 35.2027,15.745 L33.3017,16.601 C33.2657,16.618 33.2267,16.626 33.1897,16.626 C33.0837,16.626 32.9847,16.566 32.9387,16.464 L31.6607,13.626 L30.0997,14.813 C30.0487,14.852 29.9917,14.869 29.9357,14.869 C29.7927,14.869 29.6607,14.757 29.6597,14.595 L29.6187,6.498 C29.6177,6.333 29.7517,6.222 29.8937,6.222" id="Fill-21" fill="#FFFFFF"></path>
                                <path d="M32.6457,19.4788 L30.1867,20.8988 C29.8317,21.1038 29.3877,20.8468 29.3877,20.4378 L29.3877,17.5978 C29.3877,17.1888 29.8317,16.9318 30.1867,17.1368 L32.6457,18.5568 C32.9997,18.7618 32.9997,19.2738 32.6457,19.4788" id="Fill-23" fill="#000000"></path>
                            </g>
                        </g>
                    </g>
                </g>
            </g>
        </g>
    </g>
</svg>