<?xml version="1.0" encoding="UTF-8"?>
<svg width="62px" height="62px" viewBox="0 0 62 62" version="1.1" xmlns="http://www.w3.org/2000/svg" xmlns:xlink="http://www.w3.org/1999/xlink">
    <!-- Generator: Sketch 47 (45396) - http://www.bohemiancoding.com/sketch -->
    <title>Group 8</title>
    <desc>Created with Sketch.</desc>
    <defs></defs>
    <g id="updated" stroke="none" stroke-width="1" fill="none" fill-rule="evenodd">
        <g id="Features-Page-Update-–-Logged-Out" transform="translate(-1112.000000, -677.000000)">
            <g id="Group-12" transform="translate(1072.000000, 677.000000)">
                <g id="Group-14">
                    <g id="Group-8" transform="translate(41.000000, 0.000000)">
                        <g id="Page-1">
                            <path d="M60.0001,30.9995 C60.0001,47.5685 46.5681,60.9995 30.0001,60.9995 C13.4321,60.9995 0.0001,47.5685 0.0001,30.9995 C0.0001,14.4315 13.4321,0.9995 30.0001,0.9995 C46.5681,0.9995 60.0001,14.4315 60.0001,30.9995 Z" id="Stroke-1" stroke="#D6D6D6" stroke-width="2" stroke-linecap="round" stroke-linejoin="round"></path>
                            <g id="Group-13" transform="translate(9.000000, 27.000000)">
                                <path d="M11.921,0.1763 L10.906,0.1763 C10.629,0.1763 10.403,0.4023 10.403,0.6793 L10.403,9.3153 C10.403,9.5923 10.629,9.8183 10.906,9.8183 L15.9,9.8183 C16.177,9.8183 16.402,9.5923 16.402,9.3153 L16.402,8.5033 C16.402,8.2263 16.177,8.0003 15.9,8.0003 L12.424,8.0003 L12.424,0.6793 C12.424,0.4023 12.198,0.1763 11.921,0.1763" id="Fill-3" fill="#000000"></path>
                                <path d="M19.4639,9.8179 L20.4919,9.8179 C20.7669,9.8179 20.9879,9.5959 20.9879,9.3219 L20.9879,0.6719 C20.9879,0.3979 20.7669,0.1759 20.4919,0.1759 L19.4639,0.1759 C19.1899,0.1759 18.9679,0.3979 18.9679,0.6719 L18.9679,9.3219 C18.9679,9.5959 19.1899,9.8179 19.4639,9.8179" id="Fill-5" fill="#000000"></path>
                                <path d="M27.9014,6.4556 L25.5174,0.4886 C25.4424,0.3006 25.2594,0.1766 25.0564,0.1766 L24.0384,0.1766 C23.6854,0.1766 23.4454,0.5326 23.5774,0.8586 L27.0754,9.5076 C27.1504,9.6946 27.3334,9.8176 27.5354,9.8176 L28.2814,9.8176 C28.4834,9.8176 28.6664,9.6946 28.7414,9.5076 L32.2394,0.8586 C32.3714,0.5326 32.1304,0.1766 31.7784,0.1766 L30.7594,0.1766 C30.5564,0.1766 30.3744,0.2996 30.2984,0.4876 L27.9014,6.4556 Z" id="Fill-7" fill="#000000"></path>
                                <path d="M36.8487,8.0005 L36.8487,5.5685 L39.2517,5.5685 C39.5267,5.5685 39.7477,5.3475 39.7477,5.0725 L39.7477,4.2475 C39.7477,3.9735 39.5267,3.7515 39.2517,3.7515 L36.8487,3.7515 L36.8487,1.9945 L40.1967,1.9945 C40.4707,1.9945 40.6927,1.7725 40.6927,1.4985 L40.6927,0.6725 C40.6927,0.3975 40.4707,0.1765 40.1967,0.1765 L35.3247,0.1765 C35.0497,0.1765 34.8277,0.3975 34.8277,0.6725 L34.8277,9.3215 C34.8277,9.5965 35.0497,9.8175 35.3247,9.8175 L40.3307,9.8175 C40.6057,9.8175 40.8277,9.5965 40.8277,9.3215 L40.8277,8.4965 C40.8277,8.2225 40.6057,8.0005 40.3307,8.0005 L36.8487,8.0005 Z" id="Fill-9" fill="#000000"></path>
                                <path d="M5.0547,4.7075 C5.0547,6.0035 4.0037,7.0535 2.7087,7.0535 C1.4127,7.0535 0.3627,6.0035 0.3627,4.7075 C0.3627,3.4115 1.4127,2.3615 2.7087,2.3615 C4.0037,2.3615 5.0547,3.4115 5.0547,4.7075" id="Fill-11" fill="#00ADEF"></path>
                            </g>
                        </g>
                    </g>
                </g>
            </g>
        </g>
    </g>
</svg>